<svg width="612" height="163.461" xmlns="http://www.w3.org/2000/svg">
 <g>
  <title>Layer 1</title>
  <path id="svg_21" d="m96.325996,23.51c-32.823997,0 -59.528996,26.705 -59.528996,59.528002c0,32.823997 26.704998,59.528999 59.528996,59.528999s59.528999,-26.705002 59.528999,-59.528999c0,-32.823002 -26.703995,-59.528002 -59.528999,-59.528002z" fill="#44C7F4"/>
  <path id="svg_22" d="m51.669998,4.197c-1.525997,-1.526 -3.998997,-1.526 -5.525997,0l-42.524001,42.523001c-1.526,1.524998 -1.526,3.999001 0,5.525997c0.763,0.763 1.763,1.145 2.763,1.145s2,-0.382 2.763,-1.145l42.523998,-42.523998c1.527,-1.525001 1.527,-3.999 0,-5.525z" fill="#B4B4B5"/>
  <path id="svg_23" d="m167.352005,73.105003c-2.125,0.118996 -3.674011,2.038994 -3.682999,4.167c-0.004013,0.973 -0.033005,7.903999 -0.078003,8.866997c-0.020996,0.454002 -0.055008,0.903999 -0.085007,1.355003c-0.035995,0.531998 -0.072998,1.062996 -0.121002,1.591995c-0.049988,0.561005 -0.106995,1.119003 -0.17099,1.676003c-0.042007,0.358002 -0.089005,0.714996 -0.137009,1.071999c-4.325989,32.989998 -32.599991,58.548004 -66.750984,58.548004c-34.153,0 -62.429012,-25.561005 -66.752001,-58.553001c-0.049002,-0.372002 -0.099001,-0.744003 -0.143002,-1.118004c-0.061998,-0.542999 -0.116999,-1.087997 -0.164999,-1.633995c-0.049,-0.544006 -0.089001,-1.090004 -0.125,-1.637001c-0.028,-0.439003 -0.061001,-0.875999 -0.080999,-1.316002c-0.046001,-0.983002 -0.075001,-7.933998 -0.078001,-8.928001c-0.004999,-1.900002 -1.250999,-3.653 -3.115,-4.018997c-2.504999,-0.492004 -4.700001,1.411995 -4.700001,3.830002c0,0.282997 0.002001,6.529999 0.005001,6.812996c0.197001,17.731003 6.573999,33.999001 17.062998,46.769005c1.908001,2.322998 3.009003,5.201996 3.009003,8.207993v13.867996c0,5.582001 4.524998,10.10701 10.106998,10.10701h89.952c5.582001,0 10.106995,-4.525009 10.106995,-10.10701v-13.867996c0,-3.005997 1.101013,-5.884995 3.009003,-8.207993c10.542999,-12.835007 16.931,-29.206001 17.06601,-47.043007c0.000992,-0.190994 0.001999,-6.347 0.001999,-6.538994c-0.002014,-2.234001 -1.874008,-4.028008 -4.13501,-3.902z" fill="#B4B4B5"/>
  <path id="svg_24" d="m139.419998,65.583l-2.875,-10.153999c-0.210999,-0.75 -0.985001,-1.198002 -1.735992,-0.996002c-1.452011,0.375 -3.008011,0.350002 -4.494003,-0.07c-4.672005,-1.323997 -7.521004,-6.186001 -6.350006,-10.84c0.189003,-0.750999 -0.252998,-1.516998 -0.998993,-1.728001l-10.154007,-2.876999c-0.375,-0.105999 -0.774994,-0.056 -1.112,0.139999c-0.335999,0.197002 -0.577995,0.521 -0.669998,0.900002c-0.357002,1.464001 -1.104996,2.796001 -2.166,3.855999c-1.556999,1.556999 -3.654999,2.415001 -5.907997,2.416c-2.404999,0 -4.689003,-0.959999 -6.431,-2.700001c-0.560005,-0.559998 -1.466003,-0.559998 -2.026001,0l-7.276001,7.276001c-0.269997,0.27 -0.420998,0.637001 -0.419998,1.019001c0.000999,0.382 0.154999,0.746998 0.427002,1.014c1.120995,1.105 1.937996,2.481998 2.362,3.981998c0.640999,2.263 0.361,4.605999 -0.788002,6.598999c-1.131004,1.962006 -2.973,3.351006 -5.191002,3.915001c-0.375,0.095001 -0.695,0.336998 -0.889,0.672005c-0.193001,0.335999 -0.242996,0.734993 -0.137001,1.106995l2.874001,10.153c0.210999,0.75 0.982002,1.197998 1.737999,0.996002c1.465004,-0.378998 3.027,-0.360001 4.518005,0.064003c4.656998,1.319 7.507996,6.171997 6.356995,10.819c-0.185997,0.75 0.257004,1.512993 1,1.721992l10.151001,2.874001c0.128998,0.036003 0.259003,0.055 0.389999,0.055c0.25,0 0.498001,-0.065994 0.719002,-0.193001c0.335999,-0.195999 0.578003,-0.517998 0.671997,-0.895996c0.360001,-1.450996 1.108002,-2.777 2.163002,-3.832001c1.558998,-1.558998 3.658005,-2.416 5.909004,-2.416c2.388,0 4.657997,0.945999 6.392998,2.666c0.561996,0.554001 1.464996,0.553001 2.021996,-0.005997l7.276001,-7.277c0.270004,-0.269005 0.419998,-0.634003 0.419998,-1.014c0,-0.382004 -0.153,-0.746002 -0.422989,-1.014c-1.100006,-1.094002 -1.904007,-2.458 -2.326004,-3.945999c-0.639008,-2.260002 -0.362,-4.599007 0.781998,-6.590004c1.126007,-1.958 2.964005,-3.348 5.173996,-3.915001c0.375,-0.097 0.694,-0.338997 0.887009,-0.673996c0.192993,-0.337006 0.241989,-0.735001 0.136993,-1.107002zm-37.179001,-7.024002c2.226006,-2.225998 5.212006,-3.452 8.405006,-3.452c3.326996,0 6.475998,1.315002 8.863998,3.702c2.334,2.334003 3.648994,5.411003 3.701996,8.664001c0.053001,3.269997 -1.172997,6.327003 -3.451996,8.605003c-2.226006,2.225998 -5.210999,3.452995 -8.403999,3.452995c-3.329002,0 -6.477005,-1.314995 -8.865005,-3.703995c-4.829994,-4.830002 -4.941994,-12.576004 -0.25,-17.268005z" fill="#FFFFFF"/>
  <path id="svg_25" d="m95.948997,103.476997c-0.994995,-0.256996 -1.917999,-0.787994 -2.670998,-1.534996c-2.370003,-2.348999 -2.467003,-6.221001 -0.214996,-8.630005c0.528999,-0.564995 0.511993,-1.449997 -0.038002,-1.994995l-5.470001,-5.426003c-0.277,-0.273003 -0.630997,-0.417 -1.041,-0.416c-0.389,0.010002 -0.758003,0.176003 -1.021004,0.461998c-0.696999,0.757004 -1.584999,1.307007 -2.57,1.590004c-0.504997,0.145996 -1.023994,0.218002 -1.544998,0.218002c-2.628998,0 -4.998001,-1.848 -5.758995,-4.496002c-0.217003,-0.760002 -1.010002,-1.198997 -1.773003,-0.981003l-7.219002,2.076004c-0.366997,0.104996 -0.677002,0.352997 -0.861,0.687996c-0.182999,0.334 -0.224998,0.729004 -0.117996,1.094002c0.306,1.037003 0.338997,2.135002 0.094994,3.179001c-0.619995,2.655998 -2.915997,4.511002 -5.583996,4.511002c-0.493,0 -0.989002,-0.064003 -1.476002,-0.192001c-0.375,-0.098999 -0.771999,-0.042 -1.104,0.157997c-0.329998,0.200005 -0.566998,0.525002 -0.654999,0.901001l-1.752998,7.500999c-0.178001,0.758003 0.284,1.520004 1.037998,1.714005c1.005001,0.256996 1.934002,0.788994 2.688,1.537994c2.362999,2.344002 2.464001,6.210007 0.227001,8.619003c-0.526001,0.567001 -0.507999,1.447998 0.041,1.991997l5.470001,5.425003c0.276001,0.273003 0.639,0.403 1.037994,0.416c0.388,-0.008003 0.756004,-0.174004 1.020004,-0.458c0.696999,-0.75 1.583,-1.293999 2.561996,-1.576004c0.505005,-0.145996 1.026001,-0.217995 1.546005,-0.217995c2.613998,0 4.976997,1.834 5.746994,4.461998c0.183006,0.624001 0.754005,1.029999 1.375,1.029999c0.130005,0 0.264,-0.017998 0.396004,-0.056l7.220001,-2.075996c0.364998,-0.105003 0.673996,-0.351006 0.859001,-0.684006c0.182999,-0.333 0.226997,-0.725998 0.119995,-1.090996c-0.296997,-1.026001 -0.325996,-2.113998 -0.084999,-3.148003c0.620003,-2.655998 2.916,-4.509995 5.583,-4.509995c0.487999,0 0.981003,0.063995 1.464005,0.188995c0.370995,0.097 0.767998,0.041 1.100998,-0.160995c0.330002,-0.199005 0.565002,-0.523003 0.653,-0.900002l1.751999,-7.502998c0.177002,-0.757004 -0.282997,-1.517006 -1.037003,-1.711006zm-17.253998,9.256004c-0.806999,0.231995 -1.640999,0.349998 -2.476997,0.349998c-4.101006,0 -7.779999,-2.828003 -8.945,-6.878998c-0.694,-2.412003 -0.437004,-4.945 0.725998,-7.130005c1.170998,-2.201996 3.118996,-3.788994 5.482002,-4.468994c0.806999,-0.232002 1.639999,-0.350006 2.474998,-0.350006c4.102997,0 7.780998,2.828003 8.946999,6.879005c1.436996,4.998001 -1.348999,10.201996 -6.208,11.598999z" fill="#FFFFFF"/>
  <path id="svg_26" d="m58.243,25.690001l0,0l4.542,-4.542c1.495998,-1.496 1.716,-3.958 0.299,-5.530001c-1.510998,-1.676 -4.093998,-1.727 -5.668999,-0.151l-42.525001,42.524001c-1.526,1.524998 -1.526,3.999001 0,5.525997c0.763,0.763 1.763,1.145004 2.763,1.145004c1,0 2,-0.382004 2.763,-1.145004l0.091999,-0.091999c2.543001,-2.542999 6.667,-2.542999 9.210001,0l1.701,1.701c4.394999,-15.903 14.831999,-28.758999 26.823999,-39.435999z" fill="#B4B4B5"/>
  <path id="svg_27" d="m134.408997,25.690001l0,0l-4.541992,-4.542c-1.496002,-1.496 -1.716003,-3.958 -0.299011,-5.530001c1.511002,-1.676 4.094009,-1.727 5.669006,-0.151l42.524994,42.524001c1.526001,1.524998 1.526001,3.999001 0,5.525997c-0.763,0.763 -1.763,1.145004 -2.763,1.145004s-2,-0.382004 -2.763,-1.145004l-0.091995,-0.091999c-2.542999,-2.542999 -6.666992,-2.542999 -9.209991,0l-1.701004,1.701c-4.395004,-15.903 -14.832001,-28.758999 -26.824005,-39.435999z" fill="#B4B4B5"/>
  <path id="svg_28" d="m51.669998,4.197c-1.525997,-1.526 -3.998997,-1.526 -5.525997,0l-42.524001,42.523001c-1.526,1.524998 -1.526,3.999001 0,5.525997c0.763,0.763 1.763,1.145 2.763,1.145s2,-0.382 2.763,-1.145l42.523998,-42.523998c1.527,-1.525001 1.527,-3.999 0,-5.525z" fill="#B4B4B5"/>
  <path id="svg_29" d="m140.981995,4.197c1.526001,-1.526 3.998993,-1.526 5.526001,0l42.525009,42.524001c1.526001,1.524998 1.526001,3.999001 0,5.526001c-0.763,0.762997 -1.763,1.144997 -2.763,1.144997s-2,-0.382 -2.763,-1.144997l-42.525009,-42.525002c-1.526001,-1.525001 -1.526001,-3.999 0,-5.525z" fill="#B4B4B5"/>
  <path id="svg_30" d="m104.955002,38.48c0.244995,-0.991001 0.687996,-1.912998 1.278999,-2.721001c-3.204002,-0.668999 -6.506004,-1.07 -9.909004,-1.07c-15.195,0 -28.744995,7.014999 -37.607998,17.976002c10.129002,-8.635002 23.255001,-13.857002 37.607998,-13.857002c2.745003,0 5.427002,0.248001 8.069,0.617001c0.014999,-0.014 0.033005,-0.014 0.048004,-0.028999c0.250999,-0.251999 0.428001,-0.568001 0.513,-0.916z" fill="#B3E2F6"/>
  <path id="svg_31" d="m159.031998,4.84l29.356003,29.356998l3.804001,-3.803999c0.968994,-0.969 0.968994,-2.539 0,-3.507l-25.848999,-25.849c-0.968002,-0.968 -2.539001,-0.968 -3.507004,0l-3.804001,3.803z" fill="#44C7F4"/>
 </g>
</svg>
